<?xml version="1.0" encoding="utf-8"?>
<!-- Generator: Adobe Illustrator 18.1.0, SVG Export Plug-In . SVG Version: 6.00 Build 0)  -->
<svg version="1.1" id="Слой_1" xmlns="http://www.w3.org/2000/svg" xmlns:xlink="http://www.w3.org/1999/xlink" x="0px" y="0px"
	 viewBox="0 261.8 612 268.8" enable-background="new 0 261.8 612 268.8" xml:space="preserve">
<path fill="#00ABE9" d="M298.3,302.8h8v42.6c0,5,0.8,8.8,4.5,9.4c0.6,0.2,1.3,0,1.3,0l1.4,7.1c0,0-3,0-4,0
	c-5.4,0-11.3-4.8-11.3-16.4L298.3,302.8L298.3,302.8L298.3,302.8z"/>
<path fill="#00ABE9" d="M414.7,302.8h8v42.6c0,5,0.8,8.8,4.5,9.4c0.6,0.2,1.3,0,1.3,0l1.4,7.1c0,0-3,0-4,0
	c-5.4,0-11.3-4.8-11.3-16.4L414.7,302.8L414.7,302.8L414.7,302.8z"/>
<path fill="#00ABE9" d="M582.2,335.8h2.3V335c0-7-4-9.2-9.2-9.2c-4.2,0-8.5,1.5-11.9,4l-3.3-6c3.5-2.9,9.9-5,15.7-5
	c10.5,0,16.7,5.8,16.7,16.4V362h-7.9l0,0c0,0-4.2,0-13.1,0c-7.3,0-14.5-3.7-14.5-11.6C557.1,337.3,573.5,335.8,582.2,335.8z
	 M573.1,356.9c3.3,0.6,9.2,0.4,11.6-1.3v-13.9h-2.1c-6,0-17.2,0.4-17.2,8.3C565.1,353.2,567.8,356,573.1,356.9z"/>
<path fill="#00ABE9" d="M338.6,318.4c11.9,0,18.3,8.9,18.3,19.8c0,1.1,0.2,2.3,0,3.5h-31.1c0.4,9.1,7,14.1,14.5,14.1
	c4.4,0,10.5-1.1,16.1-6.6l-0.2,7.5c-4,3.7-10.5,6-16.3,6c-13.1,0-22.5-9.6-22.5-22.2C317.4,327,326.6,318.4,338.6,318.4z
	 M348.8,335.8c-0.2-7.3-4.8-11.1-10.2-11.1c-6.3,0-11.1,4-12.4,11.1H348.8z"/>
<path fill="#00ABE9" d="M386,318.4c11.9,0,18.3,8.9,18.3,19.8c0,1.1,0.2,2.3,0,3.5h-31.2c0.4,9.1,7,14.1,14.5,14.1
	c4.4,0,10.5-1.1,16.1-6.6l-0.2,7.5c-4,3.7-10.5,6-16.3,6c-13.1,0-22.5-9.6-22.5-22.2C365,327,373.9,318.4,386,318.4z M396.2,335.8
	c-0.2-7.3-4.8-11.1-10.2-11.1c-6.3,0-11.1,4-12.4,11.1H396.2z"/>
<path fill="#00ABE9" d="M455.2,318.4c12.6,0,22.8,9.2,22.8,22c0,12.9-10,22-22.8,22c-12.6,0-22.8-9.3-22.8-22.2
	C432.7,327.7,442.9,318.4,455.2,318.4z M455.2,355.6c7.9,0,14.5-6.4,14.5-15.1c0-8.7-6.6-15-14.5-15c-8,0-14.5,6.3-14.5,15
	C441,349.4,447.3,355.6,455.2,355.6z"/>
<path fill="#00ABE9" d="M507.8,318.4c12.6,0,22.8,9.2,22.8,22c0,12.9-10.1,22-22.8,22c-12.6,0-22.8-9.3-22.8-22.2
	C485,327.7,495.3,318.4,507.8,318.4z M507.8,355.6c7.9,0,14.5-6.4,14.5-15.1c0-8.7-6.6-15-14.5-15s-14.5,6.3-14.5,15
	C493.2,349.4,499.7,355.6,507.8,355.6z"/>
<path fill="#00ABE9" d="M539.8,352.9h8.6v8.8h-8.6V352.9L539.8,352.9z"/>
<path fill="#00ABE9" d="M604.4,303.2h8.3v8.2h-8.3L604.4,303.2L604.4,303.2z M604.5,319.7h8V362h-8V319.7z"/>
<rect x="299.3" y="384.6" fill="#FFFFFF" width="7.6" height="53.8"/>
<g>
	<path fill="#FFFFFF" d="M339.7,406.7l-2.4-6.2h-7.9l-2.4,6.2h-2.3l7.6-19.5h1.9l7.7,19.5H339.7z M336.5,398.6l-2.3-6.1
		c-0.2-0.8-0.6-1.7-0.8-2.9c-0.2,0.8-0.5,1.7-0.8,2.9l-2.4,6.1H336.5z"/>
	<path fill="#FFFFFF" d="M344.6,406.7v-19.4h2.3v19.4C346.9,406.7,344.6,406.7,344.6,406.7z"/>
	<path fill="#FFFFFF" d="M359.4,406.7v-19.4h2.3v17.5h8.6v2L359.4,406.7L359.4,406.7z"/>
	<path fill="#FFFFFF" d="M384.3,406.7h-10.7v-19.4h10.8v2h-8.7v6.3h8v2h-8v7.1h8.6L384.3,406.7L384.3,406.7z"/>
	<path fill="#FFFFFF" d="M400.9,406.7l-2.4-6.2h-7.9l-2.4,6.2h-2.4l7.6-19.5h1.9l7.6,19.5H400.9z M397.7,398.6l-2.3-6.1
		c-0.2-0.8-0.6-1.7-0.8-2.9c-0.2,0.8-0.5,1.7-0.8,2.9l-2.4,6.1H397.7z"/>
	<path fill="#FFFFFF" d="M421.3,396.9c0,3.2-0.8,5.7-2.6,7.4c-1.7,1.7-4.3,2.5-7.5,2.5h-5.4v-19.4h6.1c3,0,5.4,0.8,7,2.5
		C420.6,391.7,421.3,393.9,421.3,396.9z M419,397c0-2.5-0.7-4.4-1.9-5.7c-1.2-1.2-3.2-1.9-5.7-1.9h-3.3V405h2.7c2.7,0,4.8-0.7,6.1-2
		C418.3,401.5,419,399.6,419,397z"/>
	<path fill="#FFFFFF" d="M434.3,396.7h6.6v9.4c-1.1,0.2-2,0.6-3.1,0.8c-1.1,0.2-2.4,0.2-3.7,0.2c-2.9,0-5.2-0.8-6.9-2.6
		c-1.7-1.7-2.4-4.2-2.4-7.4c0-2,0.4-3.8,1.2-5.2c0.8-1.5,1.9-2.7,3.5-3.5c1.5-0.8,3.3-1.2,5.2-1.2c2,0,3.9,0.4,5.7,1.2l-0.8,2
		c-1.7-0.8-3.5-1.2-5-1.2c-2.4,0-4.3,0.7-5.5,2.1c-1.3,1.4-2,3.3-2,5.8c0,2.6,0.7,4.6,1.9,6.1c1.2,1.3,3.2,2,5.6,2
		c1.3,0,2.7-0.2,3.9-0.5v-6.1H434L434.3,396.7L434.3,396.7L434.3,396.7z"/>
	<path fill="#FFFFFF" d="M456.3,406.7h-10.8v-19.4h10.8v2h-8.5v6.3h8v2h-8v7.1h8.6v1.9H456.3z"/>
	<path fill="#FFFFFF" d="M475.9,406.7h-2.6l-10.6-16.3h-0.1c0.1,1.9,0.2,3.7,0.2,5.2v11.1h-2v-19.4h2.5l10.6,16.2h0.1
		c0-0.2-0.1-1-0.1-2.4c-0.1-1.2-0.1-2.3-0.1-2.9v-11.1h2.1L475.9,406.7L475.9,406.7L475.9,406.7L475.9,406.7z"/>
	<path fill="#FFFFFF" d="M483.1,403.7l0.2,0.2c-0.2,0.8-0.6,1.9-1,3.1c-0.4,1.2-0.8,2.3-1.3,3.3h-1.7c0.2-1,0.5-2,0.8-3.3
		c0.2-1.3,0.5-2.4,0.6-3.3H483.1L483.1,403.7z"/>
	<path fill="#FFFFFF" d="M505.8,401.7c0,1.7-0.6,3-1.8,3.9c-1.2,1-2.9,1.4-5,1.4c-2.4,0-4-0.2-5.2-0.8v-2.3c0.8,0.2,1.7,0.6,2.6,0.8
		c1,0.2,1.8,0.2,2.9,0.2c1.5,0,2.6-0.2,3.3-0.8c0.8-0.6,1.2-1.3,1.2-2.4c0-0.7-0.1-1.2-0.4-1.7c-0.2-0.4-0.7-0.8-1.3-1.2
		c-0.7-0.4-1.7-0.8-2.9-1.2c-1.8-0.7-3.1-1.4-3.9-2.4c-0.8-0.8-1.2-2-1.2-3.5c0-1.4,0.6-2.7,1.7-3.6c1.1-0.8,2.6-1.3,4.4-1.3
		c1.9,0,3.7,0.4,5.2,1.1l-0.7,1.9c-1.7-0.7-3.2-1-4.6-1c-1.2,0-2.1,0.2-2.9,0.8c-0.7,0.5-1,1.2-1,2.1c0,0.7,0.1,1.2,0.4,1.7
		c0.2,0.4,0.7,0.8,1.2,1.2c0.6,0.2,1.4,0.8,2.7,1.2c2,0.8,3.5,1.5,4.3,2.4C505.6,398.9,505.8,400.2,505.8,401.7z"/>
	<path fill="#FFFFFF" d="M524.5,387.2v12.5c0,2.3-0.7,3.9-2,5.2c-1.4,1.2-3.2,1.9-5.5,1.9c-2.4,0-4.2-0.7-5.4-1.9
		c-1.2-1.2-1.9-3-1.9-5.2v-12.5h2.3V400c0,1.7,0.5,2.9,1.3,3.8c0.8,0.8,2.3,1.2,3.9,1.2c1.7,0,2.9-0.5,3.8-1.3
		c1-0.8,1.3-2.1,1.3-3.8v-12.6H524.5L524.5,387.2z"/>
	<path fill="#FFFFFF" d="M542,393.1c0,1.9-0.7,3.5-2,4.5c-1.3,1.1-3.3,1.5-5.7,1.5h-2.4v7.6h-2.3v-19.4h5
		C539.6,387.2,542,389.3,542,393.1z M532,397.1h2c2,0,3.5-0.2,4.4-1c0.8-0.7,1.3-1.7,1.3-3.1c0-1.2-0.4-2.3-1.2-2.9
		c-0.8-0.7-2.1-1-3.9-1h-2.5v7.9H532z"/>
	<path fill="#FFFFFF" d="M558.4,393.1c0,1.9-0.7,3.5-2,4.5c-1.3,1.1-3.3,1.5-5.7,1.5h-2.3v7.6h-2.3v-19.4h5
		C555.9,387.2,558.4,389.3,558.4,393.1z M548.3,397.1h2c2,0,3.5-0.2,4.4-1c0.8-0.7,1.3-1.7,1.3-3.1c0-1.2-0.4-2.3-1.2-2.9
		c-0.8-0.7-2.1-1-3.9-1h-2.5v7.9H548.3z"/>
	<path fill="#FFFFFF" d="M579.4,397.1c0,3.1-0.8,5.5-2.4,7.4c-1.5,1.7-3.8,2.7-6.6,2.7c-2.9,0-5-0.8-6.7-2.6
		c-1.5-1.7-2.4-4.3-2.4-7.5s0.8-5.6,2.4-7.4c1.5-1.7,3.8-2.6,6.7-2.6c2.9,0,4.9,0.8,6.6,2.6C578.5,391.4,579.4,393.9,579.4,397.1z
		 M563.9,397.1c0,2.6,0.6,4.6,1.7,6.1c1.2,1.3,2.7,2,4.9,2s3.8-0.7,4.9-2c1.1-1.3,1.7-3.3,1.7-6.1c0-2.6-0.6-4.6-1.7-6.1
		c-1.1-1.3-2.7-2-4.9-2c-2.1,0-3.8,0.7-4.9,2C564.5,392.5,563.9,394.5,563.9,397.1z"/>
	<path fill="#FFFFFF" d="M585.9,398.7v8.1h-2.3v-19.4h5.2c2.4,0,4.2,0.5,5.2,1.3c1.2,0.8,1.7,2.4,1.7,4.2c0,2.6-1.2,4.4-3.9,5.2
		l5.2,8.7h-2.9l-4.8-8.1L585.9,398.7L585.9,398.7z M585.9,396.8h3.1c1.5,0,2.9-0.2,3.5-1c0.8-0.7,1.2-1.5,1.2-2.9
		c0-1.3-0.4-2.3-1.2-2.9c-0.8-0.6-1.9-0.8-3.7-0.8h-2.9V396.8z"/>
	<path fill="#FFFFFF" d="M606.5,406.7h-2.3v-17.4h-6.3v-2h14.7v2h-6.2L606.5,406.7L606.5,406.7z"/>
</g>
<g>
	<path fill="#FFFFFF" d="M326.4,431c0-1.2,0.2-2.1,1-3.1c0.6-0.8,1.7-1.7,3.3-2.7c-0.8-0.8-1.2-1.4-1.5-1.9
		c-0.2-0.4-0.5-0.8-0.7-1.3c-0.2-0.5-0.2-1-0.2-1.4c0-1.3,0.4-2.4,1.2-3.1c0.8-0.8,2-1.2,3.7-1.2c1.4,0,2.6,0.4,3.3,1.1
		c0.8,0.8,1.2,1.7,1.2,3.1c0,1-0.2,1.8-0.8,2.6c-0.6,0.8-1.7,1.7-3,2.4l5.4,5.2c0.5-0.6,0.8-1.2,1.2-1.9c0.2-0.8,0.6-1.5,0.8-2.4
		h2.3c-0.6,2.5-1.5,4.4-2.7,5.7l3.9,3.9h-2.7l-2.4-2.4c-1.1,1-2.1,1.7-3.2,2c-1.1,0.4-2.4,0.6-3.6,0.6c-1.9,0-3.3-0.5-4.4-1.4
		C326.8,433.9,326.4,432.6,326.4,431z M332.3,434.3c2.1,0,3.9-0.7,5.2-2l-5.7-5.6c-1,0.6-1.7,1.1-2.1,1.4c-0.4,0.4-0.7,0.8-0.8,1.2
		c-0.2,0.5-0.2,1-0.2,1.5c0,1.1,0.4,1.8,1.1,2.4C330.4,433.9,331.3,434.3,332.3,434.3z M330.4,420.5c0,0.6,0.2,1.2,0.5,1.7
		c0.2,0.6,0.8,1.2,1.7,2c1.2-0.7,1.9-1.2,2.4-1.8c0.5-0.6,0.7-1.2,0.7-1.9s-0.2-1.2-0.7-1.7c-0.5-0.4-1.1-0.7-1.8-0.7
		c-0.8,0-1.4,0.2-1.9,0.7C330.5,419.2,330.4,419.8,330.4,420.5z"/>
	<path fill="#FFFFFF" d="M365.3,430.8c0,1.7-0.6,3-1.8,3.9s-2.9,1.4-5,1.4c-2.4,0-4-0.2-5.2-0.8v-2.3c0.8,0.2,1.7,0.6,2.6,0.8
		c1,0.2,1.8,0.2,2.9,0.2c1.5,0,2.6-0.2,3.3-0.8c0.8-0.6,1.2-1.3,1.2-2.4c0-0.7-0.1-1.2-0.4-1.7c-0.2-0.4-0.7-0.8-1.3-1.2
		c-0.7-0.4-1.7-0.8-2.9-1.2c-1.8-0.7-3.1-1.4-3.9-2.4c-0.8-1-1.2-2-1.2-3.5c0-1.4,0.6-2.7,1.7-3.6c1.2-0.8,2.6-1.3,4.4-1.3
		c1.9,0,3.7,0.4,5.2,1.1l-0.7,1.9c-1.7-0.7-3.2-1-4.6-1c-1.2,0-2.1,0.2-2.9,0.8c-0.7,0.5-1,1.2-1,2.1c0,0.7,0.1,1.2,0.4,1.7
		c0.2,0.4,0.7,0.8,1.2,1.2c0.6,0.2,1.4,0.8,2.7,1.2c2,0.8,3.5,1.5,4.3,2.4C365.2,428.2,365.3,429.4,365.3,430.8z"/>
	<path fill="#FFFFFF" d="M381.6,436l-2.4-6.2h-7.9L369,436h-2.4l7.6-19.5h1.9l7.6,19.5H381.6z M378.4,427.7l-2.3-6.1
		c-0.2-0.8-0.6-1.7-0.8-2.9c-0.2,0.8-0.5,1.7-0.8,2.9l-2.4,6.1H378.4z"/>
	<path fill="#FFFFFF" d="M386.6,436v-19.4h2.3v17.4h8.6v2H386.6z"/>
	<path fill="#FFFFFF" d="M411.5,436h-10.8v-19.4h10.8v2H403v6.3h8v2h-8v7.1h8.6V436z"/>
	<path fill="#FFFFFF" d="M426.8,430.8c0,1.7-0.6,3-1.8,3.9c-1.2,1-2.9,1.4-5,1.4c-2.4,0-4-0.2-5.2-0.8v-2.3c0.8,0.2,1.7,0.6,2.6,0.8
		c1,0.2,1.8,0.2,2.9,0.2c1.5,0,2.6-0.2,3.3-0.8c0.7-0.6,1.2-1.3,1.2-2.4c0-0.7-0.1-1.2-0.4-1.7c-0.2-0.4-0.7-0.8-1.3-1.2
		c-0.7-0.4-1.7-0.8-2.9-1.2c-1.8-0.7-3.1-1.4-3.9-2.4c-0.8-0.8-1.2-2-1.2-3.5c0-1.4,0.6-2.7,1.7-3.6c1.2-0.8,2.6-1.3,4.4-1.3
		c1.9,0,3.7,0.4,5.2,1.1l-0.7,1.9c-1.7-0.7-3.2-1-4.6-1c-1.2,0-2.1,0.2-2.9,0.8c-0.7,0.5-1,1.2-1,2.1c0,0.7,0.1,1.2,0.4,1.7
		c0.2,0.4,0.7,0.8,1.2,1.2c0.6,0.2,1.4,0.8,2.7,1.2c2,0.8,3.5,1.5,4.3,2.4C426.7,428.2,426.8,429.4,426.8,430.8z"/>
	<path fill="#FFFFFF" d="M450,436l-2.4-6.2h-7.9l-2.4,6.2h-2.1l7.7-19.4h1.9l7.6,19.5L450,436L450,436L450,436L450,436z
		 M446.9,427.7l-2.3-6.1c-0.2-0.8-0.6-1.7-0.8-2.9c-0.2,0.8-0.5,1.7-0.8,2.9l-2.4,6.1H446.9z"/>
	<path fill="#FFFFFF" d="M469.8,416.5v12.5c0,2.3-0.7,3.9-2,5.2c-1.3,1.2-3.2,1.9-5.5,1.9s-4.2-0.7-5.4-1.9s-1.9-3-1.9-5.2v-12.5
		h2.3v12.6c0,1.7,0.5,2.9,1.3,3.8c0.8,0.8,2.3,1.2,3.9,1.2s2.9-0.5,3.8-1.3c1-0.8,1.3-2.1,1.3-3.8v-12.5H469.8L469.8,416.5z"/>
	<path fill="#FFFFFF" d="M480.9,436h-2.3v-17.4h-6.2v-2h14.7v2h-6.2L480.9,436L480.9,436z"/>
	<path fill="#FFFFFF" d="M506.8,426.2c0,3.1-0.8,5.5-2.4,7.4c-1.5,1.7-3.8,2.7-6.6,2.7c-2.9,0-5-0.8-6.7-2.6
		c-1.5-1.7-2.4-4.3-2.4-7.5s0.8-5.6,2.4-7.4c1.5-1.7,3.8-2.6,6.7-2.6c2.9,0,4.9,0.8,6.6,2.6C506.1,420.7,506.8,423.1,506.8,426.2z
		 M491.3,426.2c0,2.6,0.6,4.6,1.7,6.1c1.2,1.3,2.7,2,4.9,2s3.8-0.7,4.9-2c1.1-1.3,1.7-3.3,1.7-6.1s-0.6-4.6-1.7-6.1
		c-1.1-1.3-2.7-2-4.9-2c-2.1,0-3.8,0.7-4.9,2C491.9,421.7,491.3,423.7,491.3,426.2z"/>
	<path fill="#FFFFFF" d="M519.8,436l-6.6-17.2h-0.1c0.1,1.3,0.2,3,0.2,4.9v12.4h-2.1v-19.4h3.3l6.2,16.1h0.1l6.2-16.1h3.3v19.4h-2.3
		v-12.5c0-1.4,0.1-3,0.2-4.6l0,0l-6.7,17.2L519.8,436L519.8,436L519.8,436z"/>
	<path fill="#FFFFFF" d="M547.9,436l-2.4-6.2h-7.9l-2.4,6.2h-2.4l7.6-19.5h1.9l7.6,19.5H547.9z M544.8,427.7l-2.3-6.1
		c-0.2-0.8-0.6-1.7-0.8-2.9c-0.2,0.8-0.5,1.7-0.8,2.9l-2.4,6.1H544.8z"/>
	<path fill="#FFFFFF" d="M558.9,436h-2.3v-17.4h-6.2v-2h14.7v2h-6.2V436L558.9,436z"/>
	<path fill="#FFFFFF" d="M568,436v-19.4h2.3V436H568z"/>
	<path fill="#FFFFFF" d="M592.5,426.2c0,3.1-0.8,5.5-2.4,7.4c-1.5,1.7-3.8,2.7-6.6,2.7c-2.9,0-5-0.8-6.7-2.6
		c-1.5-1.7-2.4-4.3-2.4-7.5s0.8-5.6,2.4-7.4c1.5-1.7,3.8-2.6,6.7-2.6s4.9,0.8,6.6,2.6C591.8,420.7,592.5,423.1,592.5,426.2z
		 M577,426.2c0,2.6,0.6,4.6,1.7,6.1c1.2,1.3,2.7,2,4.9,2s3.8-0.7,4.9-2c1.1-1.3,1.7-3.3,1.7-6.1s-0.6-4.6-1.7-6.1
		c-1.1-1.3-2.7-2-4.9-2s-3.8,0.7-4.9,2C577.6,421.7,577,423.7,577,426.2z"/>
	<path fill="#FFFFFF" d="M612,436h-2.6l-10.6-16.3h-0.1c0.1,1.9,0.2,3.7,0.2,5.2V436h-2.1v-19.4h2.5l10.6,16.2h0.1
		c0-0.2-0.1-1-0.1-2.4c-0.1-1.2-0.1-2.3-0.1-2.9v-11.1h2.1L612,436L612,436L612,436L612,436z"/>
</g>
<g>
	<path fill="#00ABE9" d="M46.9,331.9c13.3-35.5,47.5-60.6,87.7-60.6c40.3,0,74.3,25.1,87.8,60.5c3.3,0,6.7,0,10,0
		c-13.8-40.4-52.3-69.9-97.8-69.9s-84.1,29.3-97.8,70C40,331.9,43.5,331.9,46.9,331.9z"/>
	<path fill="#00ABE9" d="M237.4,358.1c-3,0.5-6.2,1-9.4,1.7c0,1.5,0.2,3.2,0.2,4.8c0,41.6-27.6,76.9-65.4,89c-0.4,1.2-0.5,2.6-1,3.9
		c-0.5,2.3-1,4.5-1.4,6.4c44.4-11.3,77.2-51.8,77.2-99.3C237.6,362.2,237.6,360.2,237.4,358.1z"/>
	<path fill="#00ABE9" d="M107.3,457.4c-0.4-1.2-0.5-2.7-1-3.9c-37.8-11.9-65.3-47.3-65.3-89c0-1.5,0-3.2,0.2-4.8
		c-3.2-0.5-6.4-1.2-9.4-1.7c-0.2,2.1-0.2,4.5-0.2,6.4c0,47.9,32.9,88,77.2,99.3C108.3,461.9,107.7,459.5,107.3,457.4z"/>
</g>
<g>
	<path fill="#FFFFFF" d="M139.2,383.1c10.5-5.2,16.1-18.1,18.6-26.2c3-11,3-19.9-6.2-16.7c-8.6,3-12.5,3.2-14.9,15.6
		c-1.2,6.4-2.4,8.2-2.4,8.2s-0.6-1.7-2-8.2c-2.6-12.5-6.9-13.8-14.9-15.6c-9.6-2.1-9.3,5.5-6.2,16.7c2.1,8.1,8.1,20.7,18.6,26.2
		c-20.2,17-23.8,26.1-13.1,74.7c14.4,65.9,17.6,72.9,17.6,72.9s4.2-6.9,18.5-72.9C163.3,408.9,159.5,400,139.2,383.1z"/>
	<path fill="#FFFFFF" d="M134.2,287c-12.3,0-19.5,12.9-19.5,28.8c0,4.5,1,10.6,2.7,12.6c1.2,1.5,5,3.6,8.7,4.5
		c-1.9-4.2-3.2-9.4-3.2-15c0-2.1,0.2-4.2,0.7-6.1c3.8,3.3,6.7,5.2,10.8,5.2c3.3,0,6.4-2.3,10.5-6.1c0.4,2.1,0.7,4.5,0.7,6.7
		c0,5.8-1.2,11-3,15.4c3.6-1,7.3-3.2,8.3-4.5c1-1,3.3-8.1,3.3-12.6C154.3,300.1,146.5,287,134.2,287z"/>
	<path fill="#FFFFFF" d="M169.9,347.6c0,0,0-3.6,0-2.3c-0.5-6.1,6.2-3.6,31.7-3.6c34.4,0,66.2,0.4,66.2,0.4s-39.1,7.3-73.1,13.8
		C158.3,362.6,171.3,361.3,169.9,347.6z"/>
	<path fill="#FFFFFF" d="M99.2,347.6c0,0,0-3.6,0-2.3c0.5-6.1-6.2-3.6-31.7-3.6C33,341.6,1.2,342,1.2,342s39.1,7.3,73.1,13.8
		C110.7,362.6,97.6,361.3,99.2,347.6z"/>
</g>
<g>
	<path fill="#FFFFFF" d="M139.2,383.1c10.5-5.2,16.1-18.1,18.6-26.2c3-11,3-19.9-6.2-16.7c-8.6,3-12.5,3.2-14.9,15.6
		c-1.1,5.7-2,7.6-2.3,8.1v166.4c0.6-1.1,5-11.3,18.5-72.8C163.2,408.9,159.4,400,139.2,383.1z"/>
	<path fill="#FFFFFF" d="M145.6,317.7c0,5.8-1.2,11-3,15.4c3.6-1,7.3-3.2,8.3-4.5c1-1,3.3-8.1,3.3-12.6
		c-0.1-15.8-7.7-28.8-19.8-28.9v29.9c3.2,0,6.4-2.4,10.4-6.1C145.2,313,145.6,315.4,145.6,317.7z"/>
	<path fill="#FFFFFF" d="M169.7,345.3c0-0.2,0-0.4,0-0.2C169.7,345,169.7,345.1,169.7,345.3c0,0.7,0,2.3,0,2.3
		c1.3,13.8-11.6,15,24.9,8.3c33.8-6.4,73.1-13.8,73.1-13.8s-31.8-0.4-66.2-0.4C176,341.7,169.4,339.2,169.7,345.3z"/>
</g>
</svg>
